<svg id="visual" viewBox="0 0 900 600" width="900" height="600" xmlns="http://www.w3.org/2000/svg" xmlns:xlink="http://www.w3.org/1999/xlink" version="1.1"><path d="M0 73L82 73L82 103L164 103L164 85L245 85L245 103L327 103L327 73L409 73L409 109L491 109L491 121L573 121L573 73L655 73L655 49L736 49L736 103L818 103L818 109L900 109L900 79L900 0L900 0L818 0L818 0L736 0L736 0L655 0L655 0L573 0L573 0L491 0L491 0L409 0L409 0L327 0L327 0L245 0L245 0L164 0L164 0L82 0L82 0L0 0Z" fill="#9900ff"></path><path d="M0 301L82 301L82 241L164 241L164 271L245 271L245 271L327 271L327 343L409 343L409 265L491 265L491 199L573 199L573 199L655 199L655 277L736 277L736 235L818 235L818 259L900 259L900 271L900 77L900 107L818 107L818 101L736 101L736 47L655 47L655 71L573 71L573 119L491 119L491 107L409 107L409 71L327 71L327 101L245 101L245 83L164 83L164 101L82 101L82 71L0 71Z" fill="#8800e2"></path><path d="M0 379L82 379L82 343L164 343L164 367L245 367L245 361L327 361L327 421L409 421L409 319L491 319L491 283L573 283L573 283L655 283L655 325L736 325L736 301L818 301L818 361L900 361L900 313L900 269L900 257L818 257L818 233L736 233L736 275L655 275L655 197L573 197L573 197L491 197L491 263L409 263L409 341L327 341L327 269L245 269L245 269L164 269L164 239L82 239L82 299L0 299Z" fill="#7700c6"></path><path d="M0 535L82 535L82 469L164 469L164 463L245 463L245 493L327 493L327 529L409 529L409 517L491 517L491 481L573 481L573 535L655 535L655 475L736 475L736 505L818 505L818 475L900 475L900 493L900 311L900 359L818 359L818 299L736 299L736 323L655 323L655 281L573 281L573 281L491 281L491 317L409 317L409 419L327 419L327 359L245 359L245 365L164 365L164 341L82 341L82 377L0 377Z" fill="#6600ab"></path><path d="M0 601L82 601L82 601L164 601L164 601L245 601L245 601L327 601L327 601L409 601L409 601L491 601L491 601L573 601L573 601L655 601L655 601L736 601L736 601L818 601L818 601L900 601L900 601L900 491L900 473L818 473L818 503L736 503L736 473L655 473L655 533L573 533L573 479L491 479L491 515L409 515L409 527L327 527L327 491L245 491L245 461L164 461L164 467L82 467L82 533L0 533Z" fill="#560090"></path></svg>